<?xml version="1.0" encoding="utf-8"?>
<!-- Generator: Adobe Illustrator 19.0.0, SVG Export Plug-In . SVG Version: 6.00 Build 0)  -->
<svg version="1.1" id="Layer_1" xmlns="http://www.w3.org/2000/svg" xmlns:xlink="http://www.w3.org/1999/xlink" x="0px" y="0px"
viewBox="0 0 300 300" style="enable-background:new 0 0 300 300;" xml:space="preserve">
<style type="text/css">
.st0{fill:#4CB1FF;}
</style>
<path id="XMLID_1_" class="st0" d="M64.7,300H0v-64.7h64.7V300z M300,235.3h-64.7V300H300V235.3z M143.1,78.4H78.4v64.7h64.7V78.4z
M143.1,156.9H78.4v64.7h64.7V156.9z M143.1,0H78.4v64.7h64.7V0z M64.7,78.4H0v64.7h64.7V78.4z M64.7,156.9H0v64.7h64.7V156.9z
M64.7,0H0v64.7h64.7V0z M221.6,156.9h-64.7v64.7h64.7V156.9z M221.6,78.4h-64.7v64.7h64.7V78.4z M221.6,235.3h-64.7V300h64.7V235.3
z M221.6,0h-64.7v64.7h64.7V0z M300,78.4h-64.7v64.7H300V78.4z M143.1,235.3H78.4V300h64.7V235.3z M235.3,64.7H300V0h-64.7V64.7z
M300,156.9h-64.7v64.7H300V156.9z"/>
</svg>